<svg xmlns="http://www.w3.org/2000/svg" xmlns:xlink="http://www.w3.org/1999/xlink" viewBox="0 0 86 30" version="1.1">
    <title>IKEA</title>
    <defs />
    <g stroke="none" stroke-width="1" fill="none" fill-rule="evenodd">
        <g>
            <path d="M0.345 1.3 L79.415 1.3 L79.415 29.7 L0.345 29.7 L0.345 1.3 Z" fill="#005E9D" />
            <path d="M39.88 28.4 C61.36 28.4 78.8 22.6 78.8 15.4 C78.774 8.2 61.4 2.4 39.9 2.4 C18.399 2.4 1 8.2 1 15.4 C0.984 22.6 18.4 28.4 39.9 28.4" fill="#FFDA1A" />
            <path d="M83.057 5.2 C84.195 5.2 85.1 4.3 85.1 3.1 C85.095 1.9 84.2 1 83.1 1 C81.905 1 81 1.9 81 3.1 C81.006 4.3 81.9 5.2 83.1 5.2 L83.057 5.2 Z M80.499 3.1 C80.499 1.6 81.7 0.6 83.1 0.6 C84.429 0.6 85.6 1.6 85.6 3.1 C85.602 4.5 84.4 5.6 83.1 5.6 C81.672 5.6 80.5 4.5 80.5 3.1 L80.499 3.1 Z M83.05 2.9 C83.424 2.9 83.8 2.9 83.8 2.4 C83.756 2.1 83.4 2 83.1 2 L82.523 2 L82.523 2.9 L83.05 2.9 L83.05 2.9 Z M82.523 4.5 L82.085 4.5 L82.085 1.6 L83.189 1.6 C83.876 1.6 84.2 1.9 84.2 2.4 C84.215 3 83.9 3.2 83.5 3.2 L84.288 4.5 L83.795 4.5 L83.03 3.3 L82.523 3.3 L82.523 4.5 L82.523 4.5 Z" fill="#005E9D" />
            <path d="M62.316 16.4 C62.316 16.4 61.6 14.6 61.5 14.5 C61.446 14.3 61.4 13.9 61.4 13.9 L61.423 13.9 C61.423 13.9 61.4 14.3 61.3 14.5 C61.288 14.6 60.5 16.4 60.5 16.4 L62.316 16.4 L62.316 16.4 Z M63.334 20.4 C63.334 20.4 63.7 20 63.5 19.6 L63.033 18.3 L59.932 18.3 L59.425 19.6 C59.312 20 59.6 20.4 59.6 20.4 L53.362 20.4 C53.362 20.4 53.7 20.1 53.9 19.6 L57.265 10.8 C57.491 10.2 57.1 9.9 57.1 9.9 L67.097 9.9 C67.097 9.9 66.7 10.2 66.9 10.8 L70.45 19.6 C70.73 20.1 71.1 20.4 71.1 20.4 L63.334 20.4 L63.334 20.4 Z" fill="#005E9D" />
            <path d="M11.158 20.4 C11.558 20.2 11.5 19.5 11.5 19.4 L11.531 10.6 C11.531 10.1 11.2 9.9 11.2 9.9 L18.433 9.9 C18.433 9.9 18.1 10.1 18.1 10.6 L18.126 19.4 C18.126 19.5 18.1 20.2 18.5 20.4 L11.158 20.4" fill="#005E9D" />
            <path d="M28.189 14.1 L30.611 10.7 C30.959 10.2 30.6 9.9 30.6 9.9 C30.564 9.9 37.7 9.9 37.7 9.9 C37.665 9.9 37.3 10.1 37 10.5 L34.375 14.2 L37.703 19.5 C37.991 19.9 38.2 20.1 38.4 20.2 C38.567 20.3 38.7 20.4 38.7 20.4 L30.36 20.4 C30.36 20.4 30.6 20.2 30.4 19.7 L28.188 16.1 L28.188 19.4 C28.188 19.5 28.1 20.2 28.5 20.4 L21.416 20.4 C21.815 20.2 21.8 19.5 21.8 19.4 L21.789 10.6 C21.789 10.1 21.5 9.9 21.5 9.9 L28.496 9.9 C28.496 9.9 28.2 10.1 28.2 10.6 L28.189 14.1" fill="#005E9D" />
            <path d="M52.137 20.4 L52.138 16.7 C52.138 16.7 51.7 17.2 51 17.2 L46.606 17.2 L46.605 16.3 L50.007 16.3 C50.195 16.3 50.8 16.4 50.9 16.6 L50.929 13.4 C50.776 13.6 50.2 13.7 50 13.7 L46.604 13.7 L46.604 12.8 L51.037 12.8 C51.69 12.8 52.1 13.3 52.1 13.3 L52.137 9.9 L40.111 9.9 C40.111 9.9 40.4 10.1 40.4 10.6 L40.418 19.4 C40.418 19.5 40.4 20.2 40 20.4 L52.137 20.4" fill="#005E9D" />
        </g>
    </g>
</svg>
